<svg width="169" height="46" viewBox="0 0 169 46" fill="none" xmlns="http://www.w3.org/2000/svg">
<g clip-path="url(#clip0_650_576)">
<path d="M168.915 4.04297V0.292969L10.7974 0.292969V4.04297L168.915 4.04297Z" fill="#B2DE26"/>
<path d="M0.914967 45.293H4.62085L4.62085 10.293H0.914967L0.914967 45.293Z" fill="#B2DE26"/>
<path d="M37.7637 40.293H32.4726L29.7879 32.5916H18.6537L15.8894 40.293H10.7959L21.6541 11.2402H26.9055L37.7637 40.293ZM24.3004 16.5375L19.9179 28.7625H28.4853L24.3004 16.5375Z" fill="black"/>
<path d="M58.0611 37.2694C55.8637 39.3597 53.0143 40.4055 49.5129 40.4055C45.538 40.4055 42.3537 39.0472 39.9586 36.3305C37.5635 33.6138 36.3652 30.0041 36.3652 25.5027C36.3652 22.786 36.8786 20.3152 37.9052 18.0916C38.9319 15.868 40.4719 14.0694 42.5252 12.6985C44.5786 11.3263 46.9874 10.6416 49.7503 10.6416C52.7246 10.6416 55.3174 11.4735 57.5286 13.1388C59.7397 14.8041 61.0684 17.2069 61.5158 20.3499H56.6199C56.2782 18.6458 55.4876 17.3069 54.2509 16.3347C53.0143 15.3624 51.4866 14.8763 49.6707 14.8763C47.8548 14.8763 46.216 15.4097 44.9135 16.4749C43.6109 17.5402 42.6899 18.8527 42.1492 20.4097C41.6097 21.968 41.3394 23.6652 41.3394 25.5041C41.3394 26.8888 41.4972 28.1944 41.8129 29.4194C42.1286 30.6444 42.6021 31.7694 43.2348 32.7958C43.8662 33.8208 44.7282 34.6402 45.8207 35.2527C46.9133 35.8652 48.1829 36.1722 49.6309 36.1722C53.8158 36.1722 56.2109 33.7485 56.8162 28.9013H61.7519C61.4884 32.3902 60.2586 35.1805 58.0597 37.2708L58.0611 37.2694Z" fill="black"/>
<path d="M83.6797 15.6807H75.3428V40.2932H70.4071V15.6807H62.6797V11.2793H83.6797V15.6807Z" fill="black"/>
<path d="M87.9963 28.6845H89.3414V22.0067H91.7379V20.8525H85.5999V22.0067H87.9963V28.6845Z" fill="black"/>
<path d="M96.546 22.9887C96.2468 22.8192 95.8955 22.7345 95.496 22.7345C95.05 22.7345 94.6849 22.8303 94.4007 23.0206C94.1166 23.2123 93.9066 23.472 93.7735 23.8011H93.7021V20.8525H92.4092V28.6845H93.7282V25.2359C93.731 24.9456 93.7872 24.6984 93.897 24.4956C94.0068 24.2928 94.1578 24.1387 94.35 24.0303C94.5421 23.9234 94.7645 23.8692 95.0129 23.8692C95.378 23.8692 95.6635 23.9803 95.8666 24.2039C96.0711 24.4275 96.1727 24.7414 96.1727 25.147V28.6845H97.4917V24.9484C97.4945 24.4692 97.4121 24.065 97.246 23.7359C97.08 23.4067 96.8466 23.1581 96.5474 22.9887H96.546Z" fill="black"/>
<path d="M99.4845 28.4301C99.9045 28.6787 100.404 28.8023 100.986 28.8023C101.429 28.8023 101.825 28.7328 102.171 28.5939C102.516 28.4551 102.803 28.2606 103.028 28.0092C103.253 27.7578 103.407 27.4662 103.488 27.1314L102.253 26.9745C102.19 27.1426 102.099 27.2842 101.978 27.4009C101.859 27.5176 101.716 27.6037 101.552 27.6606C101.387 27.7176 101.203 27.7467 101.001 27.7467C100.696 27.7467 100.43 27.6801 100.204 27.5481C99.9772 27.4162 99.8001 27.2245 99.6752 26.9745C99.5545 26.7356 99.4941 26.4495 99.4886 26.1176H103.549V25.6967C103.549 25.1787 103.479 24.7328 103.337 24.3578C103.196 23.9828 103.002 23.6759 102.757 23.4356C102.511 23.1953 102.23 23.0189 101.914 22.9037C101.598 22.7884 101.263 22.7314 100.911 22.7314C100.359 22.7314 99.8784 22.8592 99.4694 23.1162C99.0603 23.3717 98.7419 23.7301 98.5154 24.187C98.289 24.6439 98.175 25.1759 98.175 25.7801C98.175 26.3842 98.289 26.9245 98.5154 27.3773C98.7419 27.8301 99.0658 28.1801 99.4845 28.4287V28.4301ZM100.172 23.9953C100.388 23.8551 100.639 23.7856 100.926 23.7856C101.195 23.7856 101.431 23.8467 101.633 23.9689C101.834 24.0912 101.992 24.2592 102.105 24.4717C102.219 24.6842 102.275 24.9273 102.275 25.2009H99.4913C99.5051 24.9676 99.5627 24.7481 99.6684 24.5467C99.7878 24.3203 99.9553 24.1356 100.171 23.9967L100.172 23.9953Z" fill="black"/>
<path d="M108.642 26.7262H111.572L112.226 28.6845H113.674L110.934 20.8525H109.283L106.543 28.6845H107.991L108.643 26.7262H108.642ZM110.076 22.4206H110.137L111.202 25.6136H109.013L110.076 22.4206Z" fill="black"/>
<path d="M115.488 20.8525H114.169V28.6845H115.488V20.8525Z" fill="black"/>
<path d="M117.757 20.8525H116.438V28.6845H117.757V20.8525Z" fill="black"/>
<path d="M119.371 21.965C119.586 21.965 119.768 21.8928 119.919 21.747C120.07 21.6011 120.146 21.4275 120.146 21.2233C120.146 21.0192 120.07 20.8483 119.919 20.7039C119.768 20.5595 119.586 20.4858 119.371 20.4858C119.157 20.4858 118.973 20.5581 118.821 20.7039C118.669 20.8497 118.592 21.0233 118.592 21.2275C118.592 21.4317 118.667 21.6025 118.821 21.747C118.973 21.8928 119.157 21.965 119.371 21.965Z" fill="black"/>
<path d="M120.026 22.8096H118.707V28.6832H120.026V22.8096Z" fill="black"/>
<path d="M124.012 28.3301C124.162 28.1885 124.277 28.0371 124.358 27.8774H124.403V28.6843H125.673V24.7607C125.673 24.3635 125.603 24.0329 125.463 23.7718C125.323 23.5107 125.139 23.3037 124.91 23.1524C124.68 23.001 124.428 22.8926 124.153 22.8287C123.879 22.7649 123.607 22.7329 123.337 22.7329C122.941 22.7329 122.578 22.7912 122.247 22.9093C121.916 23.026 121.633 23.2037 121.399 23.4412C121.164 23.6787 120.994 23.976 120.888 24.3329L122.123 24.5274C122.193 24.3232 122.329 24.1454 122.53 23.994C122.73 23.8426 123.002 23.7662 123.344 23.7662C123.685 23.7662 123.924 23.8482 124.096 24.0107C124.267 24.1732 124.352 24.4037 124.352 24.6996V24.726C124.352 24.8579 124.304 24.9565 124.207 25.019C124.109 25.0815 123.954 25.1274 123.742 25.1551C123.529 25.1829 123.25 25.2162 122.908 25.2551C122.628 25.2885 122.357 25.3371 122.095 25.4024C121.831 25.4676 121.595 25.5649 121.384 25.6926C121.174 25.8218 121.007 25.994 120.885 26.2107C120.763 26.4274 120.701 26.701 120.701 27.0329C120.701 27.4176 120.787 27.7426 120.957 28.0065C121.127 28.2704 121.359 28.4704 121.654 28.6051C121.949 28.7399 122.28 28.8079 122.648 28.8079C122.955 28.8079 123.221 28.7635 123.447 28.676C123.672 28.5885 123.86 28.4732 124.009 28.3315L124.012 28.3301ZM122.262 27.6079C122.074 27.4746 121.981 27.2774 121.981 27.0176C121.981 26.8343 122.029 26.6843 122.125 26.5704C122.221 26.4551 122.351 26.3662 122.516 26.3024C122.681 26.2385 122.867 26.1912 123.073 26.1607C123.164 26.1482 123.272 26.1329 123.4 26.1162C123.527 26.0996 123.655 26.0787 123.786 26.0551C123.916 26.0315 124.033 26.0037 124.137 25.9732C124.241 25.9426 124.315 25.9079 124.358 25.8704V26.5746C124.358 26.7968 124.303 27.001 124.192 27.1885C124.081 27.376 123.923 27.526 123.716 27.6399C123.508 27.7537 123.264 27.8107 122.983 27.8107C122.701 27.8107 122.45 27.744 122.262 27.6093V27.6079Z" fill="black"/>
<path d="M127.918 25.2343C127.921 24.944 127.975 24.6968 128.08 24.494C128.186 24.2912 128.333 24.1371 128.522 24.0287C128.712 23.9218 128.928 23.8676 129.173 23.8676C129.531 23.8676 129.812 23.9801 130.017 24.2065C130.223 24.4315 130.323 24.7454 130.322 25.1454V28.6829H131.645V24.9468C131.648 24.4732 131.565 24.0704 131.399 23.7426C131.233 23.4135 131.001 23.1635 130.703 22.9912C130.405 22.819 130.057 22.7329 129.656 22.7329C129.222 22.7329 128.86 22.8287 128.568 23.0218C128.275 23.2149 128.064 23.4732 127.932 23.7996H127.861V22.8093H126.598V28.6829H127.917V25.2343H127.918Z" fill="black"/>
<path d="M134.353 24.0509C134.568 23.8967 134.819 23.8189 135.106 23.8189C135.441 23.8189 135.71 23.9148 135.913 24.1051C136.117 24.2967 136.244 24.5328 136.296 24.8162H137.562C137.529 24.3981 137.404 24.0328 137.187 23.7189C136.97 23.4051 136.682 23.162 136.324 22.9898C135.964 22.8176 135.552 22.7314 135.086 22.7314C134.524 22.7314 134.037 22.8606 133.625 23.1176C133.214 23.3745 132.894 23.7314 132.667 24.1884C132.441 24.6453 132.327 25.1731 132.327 25.7717C132.327 26.3703 132.438 26.887 132.659 27.3412C132.88 27.7967 133.198 28.1537 133.612 28.412C134.025 28.6703 134.519 28.7995 135.093 28.7995C135.574 28.7995 135.993 28.7092 136.35 28.5301C136.707 28.3509 136.988 28.1037 137.197 27.7884C137.404 27.4731 137.526 27.112 137.562 26.7037H136.296C136.257 26.9134 136.181 27.0912 136.07 27.2412C135.959 27.3898 135.821 27.5051 135.658 27.5828C135.495 27.662 135.311 27.7009 135.106 27.7009C134.817 27.7009 134.563 27.6217 134.347 27.4634C134.13 27.3051 133.963 27.0801 133.845 26.7884C133.727 26.4967 133.668 26.1481 133.668 25.7426C133.668 25.337 133.728 24.9981 133.849 24.7106C133.97 24.4231 134.139 24.2009 134.354 24.0467L134.353 24.0509Z" fill="black"/>
<path d="M142.559 23.4371C142.314 23.1968 142.032 23.0204 141.717 22.9051C141.401 22.7899 141.066 22.7329 140.713 22.7329C140.162 22.7329 139.681 22.8607 139.272 23.1176C138.863 23.3732 138.545 23.7315 138.318 24.1885C138.092 24.6454 137.978 25.1774 137.978 25.7815C137.978 26.3857 138.092 26.926 138.318 27.3787C138.545 27.8315 138.869 28.1815 139.287 28.4301C139.707 28.6787 140.207 28.8024 140.789 28.8024C141.232 28.8024 141.627 28.7329 141.973 28.594C142.319 28.4551 142.606 28.2607 142.831 28.0093C143.056 27.7579 143.21 27.4662 143.291 27.1315L142.056 26.9746C141.993 27.1426 141.902 27.2843 141.781 27.401C141.662 27.5176 141.519 27.6037 141.354 27.6607C141.19 27.7176 141.006 27.7468 140.804 27.7468C140.499 27.7468 140.233 27.6801 140.006 27.5482C139.78 27.4162 139.603 27.2246 139.478 26.9746C139.357 26.7357 139.297 26.4496 139.291 26.1176H143.351V25.6968C143.351 25.1787 143.281 24.7329 143.14 24.3579C142.999 23.9829 142.805 23.676 142.559 23.4357V23.4371ZM139.294 25.1996C139.308 24.9662 139.365 24.7468 139.471 24.5454C139.591 24.319 139.758 24.1343 139.973 23.9954C140.189 23.8551 140.44 23.7857 140.727 23.7857C140.996 23.7857 141.232 23.8468 141.434 23.969C141.636 24.0912 141.793 24.2593 141.906 24.4718C142.02 24.6843 142.076 24.9274 142.076 25.201H139.293L139.294 25.1996Z" fill="black"/>
<path d="M146.84 28.6846H148.163V23.8513H149.377V22.811H148.163V22.3374C148.163 22.0999 148.217 21.9179 148.324 21.7929C148.431 21.6665 148.615 21.604 148.874 21.604C148.983 21.604 149.08 21.6138 149.17 21.6332C149.257 21.6527 149.33 21.6721 149.385 21.6929L149.657 20.6457C149.572 20.6152 149.439 20.5818 149.26 20.5443C149.082 20.5068 148.873 20.4888 148.637 20.4888C148.308 20.4888 148.006 20.5527 147.734 20.6818C147.462 20.811 147.245 21.004 147.083 21.2638C146.923 21.5221 146.842 21.8457 146.842 22.2332V22.8152H145.976V23.8554H146.842V28.6888L146.84 28.6846Z" fill="black"/>
<path d="M153.75 23.1121C153.336 22.8593 152.848 22.7329 152.284 22.7329C151.72 22.7329 151.234 22.8593 150.821 23.1121C150.407 23.3649 150.086 23.719 149.858 24.1746C149.631 24.6315 149.517 25.1635 149.517 25.7732C149.517 26.3829 149.631 26.9065 149.858 27.3607C150.086 27.8149 150.407 28.1676 150.821 28.4218C151.234 28.676 151.721 28.8024 152.284 28.8024C152.846 28.8024 153.336 28.676 153.75 28.4218C154.163 28.1676 154.482 27.8149 154.709 27.3607C154.935 26.9065 155.049 26.3774 155.049 25.7732C155.049 25.169 154.935 24.6315 154.709 24.1746C154.482 23.7176 154.163 23.3635 153.75 23.1121ZM153.556 26.751C153.452 27.0454 153.294 27.2801 153.084 27.4565C152.874 27.6329 152.609 27.7204 152.292 27.7204C151.975 27.7204 151.702 27.6329 151.489 27.4565C151.276 27.2801 151.117 27.0454 151.013 26.751C150.908 26.4565 150.856 26.1287 150.856 25.7662C150.856 25.4037 150.908 25.0746 151.013 24.7774C151.117 24.4801 151.276 24.244 151.489 24.0676C151.702 23.8912 151.969 23.8037 152.292 23.8037C152.614 23.8037 152.874 23.8912 153.084 24.0676C153.294 24.244 153.452 24.4801 153.556 24.7774C153.66 25.0746 153.712 25.4037 153.712 25.7662C153.712 26.1287 153.66 26.4565 153.556 26.751Z" fill="black"/>
<path d="M157.715 24.0829C157.914 23.9731 158.14 23.919 158.396 23.919C158.511 23.919 158.63 23.9273 158.753 23.9454C158.875 23.9634 158.965 23.9815 159.023 23.9995V22.7648C158.96 22.7523 158.88 22.7412 158.786 22.7343C158.689 22.7259 158.606 22.7231 158.533 22.7231C158.198 22.7231 157.9 22.8162 157.641 23.0009C157.381 23.1856 157.199 23.4468 157.093 23.7829H157.033V22.812H155.752V28.6856H157.071V25.2051C157.071 24.9551 157.129 24.7329 157.246 24.5398C157.361 24.3454 157.519 24.194 157.718 24.0843L157.715 24.0829Z" fill="black"/>
<path d="M88.1623 33.597C88.4917 33.3817 88.8706 33.2734 89.2961 33.2734C89.5335 33.2734 89.7559 33.3067 89.9645 33.3734C90.1731 33.44 90.3612 33.5373 90.5259 33.6664C90.6906 33.7956 90.8292 33.9511 90.939 34.1345C91.0502 34.3178 91.127 34.5303 91.1696 34.7692H92.5339C92.4762 34.3359 92.3527 33.9511 92.1661 33.615C91.978 33.2789 91.7406 32.9928 91.4523 32.7581C91.1641 32.5234 90.8347 32.3456 90.4655 32.2234C90.0962 32.1011 89.6996 32.04 89.2727 32.04C88.6002 32.04 87.9976 32.1998 87.4665 32.5206C86.9353 32.84 86.5153 33.3011 86.2064 33.9011C85.8976 34.5011 85.7439 35.222 85.7439 36.0636C85.7439 36.9053 85.8976 37.6261 86.2037 38.2261C86.5098 38.8261 86.9284 39.2873 87.461 39.6067C87.9921 39.9261 88.5974 40.0873 89.2755 40.0873C89.7312 40.0873 90.147 40.0192 90.5204 39.8831C90.8951 39.747 91.2231 39.5553 91.5045 39.3095C91.7872 39.0636 92.0164 38.7775 92.1921 38.4525C92.3678 38.1275 92.4831 37.7761 92.5366 37.3984L91.1723 37.3942C91.127 37.6289 91.0474 37.8373 90.9349 38.0178C90.821 38.1984 90.6823 38.3511 90.5149 38.4748C90.3488 38.5984 90.1621 38.6914 89.9562 38.7553C89.749 38.8192 89.5294 38.8511 89.2947 38.8511C88.8719 38.8511 88.4945 38.7456 88.1651 38.5331C87.8357 38.322 87.5763 38.0081 87.3882 37.5942C87.2002 37.1803 87.1068 36.6692 87.1068 36.0623C87.1068 35.4553 87.2002 34.9595 87.3882 34.5442C87.5763 34.1289 87.8343 33.8136 88.1651 33.5984L88.1623 33.597Z" fill="black"/>
<path d="M94.6215 32.147H93.3025V39.9789H94.6215V32.147Z" fill="black"/>
<path d="M96.8905 34.104H95.5715V39.9776H96.8905V34.104Z" fill="black"/>
<path d="M96.2371 31.7787C96.023 31.7787 95.8391 31.851 95.6867 31.9968C95.5344 32.1426 95.4575 32.3162 95.4575 32.5204C95.4575 32.7246 95.533 32.8954 95.6867 33.0398C95.8391 33.1857 96.023 33.2579 96.2371 33.2579C96.4512 33.2579 96.6338 33.1857 96.7848 33.0398C96.9358 32.894 97.0112 32.7204 97.0112 32.5162C97.0112 32.3121 96.9358 32.1412 96.7848 31.9954C96.6338 31.8496 96.4512 31.7773 96.2371 31.7773V31.7787Z" fill="black"/>
<path d="M104.14 34.0277C103.719 34.0277 103.357 34.1249 103.052 34.318C102.747 34.5124 102.529 34.7707 102.399 35.0943H102.338C102.224 34.7624 102.032 34.5027 101.762 34.3124C101.491 34.1221 101.161 34.0277 100.769 34.0277C100.378 34.0277 100.049 34.1221 99.7715 34.311C99.4943 34.4999 99.2952 34.761 99.1745 35.0943H99.1031V34.1041H97.8403V39.9777H99.1594V36.3943C99.1594 36.1499 99.2088 35.9346 99.309 35.7485C99.4078 35.5624 99.5409 35.418 99.7056 35.3152C99.8703 35.2124 100.053 35.161 100.252 35.161C100.547 35.161 100.786 35.2527 100.97 35.436C101.154 35.6193 101.246 35.8638 101.246 36.1707V39.9791H102.541V36.2957C102.541 35.9624 102.636 35.6888 102.824 35.4777C103.013 35.2666 103.276 35.1596 103.613 35.1596C103.896 35.1596 104.133 35.2443 104.33 35.4152C104.525 35.586 104.622 35.8582 104.622 36.2291V39.9763H105.945V36.0332C105.945 35.3749 105.778 34.8763 105.443 34.536C105.108 34.1957 104.673 34.0249 104.139 34.0249L104.14 34.0277Z" fill="black"/>
<path d="M110.819 34.4468C110.59 34.2954 110.337 34.1871 110.063 34.1232C109.788 34.0593 109.517 34.0273 109.246 34.0273C108.851 34.0273 108.487 34.0857 108.156 34.2037C107.826 34.3204 107.543 34.4982 107.308 34.7357C107.073 34.9732 106.903 35.2704 106.798 35.6273L108.033 35.8218C108.103 35.6176 108.239 35.4398 108.439 35.2885C108.639 35.1371 108.911 35.0607 109.253 35.0607C109.595 35.0607 109.834 35.1426 110.005 35.3051C110.177 35.4676 110.262 35.6982 110.262 35.994V36.0204C110.262 36.1523 110.214 36.251 110.116 36.3135C110.019 36.376 109.864 36.4218 109.651 36.4496C109.438 36.4773 109.16 36.5107 108.818 36.5496C108.538 36.5829 108.266 36.6315 108.004 36.6968C107.74 36.7621 107.504 36.8593 107.293 36.9871C107.083 37.1162 106.917 37.2885 106.795 37.5051C106.673 37.7218 106.611 37.9954 106.611 38.3273C106.611 38.7121 106.696 39.0371 106.866 39.301C107.036 39.5648 107.268 39.7648 107.563 39.8996C107.858 40.0343 108.189 40.1023 108.557 40.1023C108.865 40.1023 109.131 40.0579 109.356 39.9704C109.581 39.8829 109.769 39.7676 109.919 39.626C110.068 39.4843 110.184 39.3329 110.265 39.1732H110.31V39.9801H111.579V36.0565C111.579 35.6593 111.509 35.3287 111.369 35.0676C111.229 34.8065 111.046 34.5996 110.816 34.4482L110.819 34.4468ZM110.267 37.8676C110.267 38.0898 110.212 38.294 110.101 38.4815C109.99 38.669 109.832 38.819 109.625 38.9329C109.418 39.0468 109.173 39.1037 108.892 39.1037C108.611 39.1037 108.359 39.0371 108.171 38.9023C107.983 38.769 107.89 38.5718 107.89 38.3121C107.89 38.1287 107.938 37.9787 108.034 37.8648C108.13 37.7496 108.261 37.6607 108.425 37.5968C108.59 37.5329 108.777 37.4857 108.983 37.4551C109.073 37.4426 109.182 37.4273 109.309 37.4107C109.437 37.394 109.565 37.3732 109.695 37.3496C109.825 37.326 109.942 37.2982 110.046 37.2676C110.151 37.2371 110.225 37.2023 110.267 37.1648V37.869V37.8676Z" fill="black"/>
<path d="M115.086 38.9038C115.016 38.9163 114.938 38.9232 114.852 38.9232C114.736 38.9232 114.629 38.9052 114.534 38.8677C114.438 38.8302 114.362 38.7621 114.304 38.6607C114.246 38.5594 114.217 38.4135 114.217 38.2232V35.1455H115.37V34.1052H114.217V32.6982H112.894V34.1052H112.067V35.1455H112.894V38.4496C112.892 38.8163 112.97 39.1219 113.13 39.3635C113.291 39.6052 113.505 39.7844 113.777 39.8982C114.047 40.0135 114.351 40.0663 114.685 40.0594C114.876 40.0538 115.038 40.0357 115.169 40.0052C115.299 39.9746 115.402 39.9482 115.475 39.9246L115.248 38.8691C115.21 38.8788 115.156 38.8913 115.086 38.9038Z" fill="black"/>
<path d="M120.327 34.7315C120.081 34.4912 119.8 34.3148 119.484 34.1996C119.168 34.0843 118.833 34.0273 118.481 34.0273C117.929 34.0273 117.448 34.1551 117.039 34.4121C116.63 34.6676 116.312 35.026 116.086 35.4829C115.859 35.9398 115.745 36.4718 115.745 37.076C115.745 37.6801 115.859 38.2204 116.086 38.6732C116.312 39.126 116.636 39.476 117.055 39.7246C117.475 39.9732 117.974 40.0968 118.556 40.0968C118.999 40.0968 119.395 40.0273 119.741 39.8885C120.086 39.7496 120.373 39.5551 120.598 39.3037C120.824 39.0523 120.977 38.7607 121.058 38.426L119.823 38.269C119.76 38.4371 119.669 38.5801 119.548 38.6954C119.429 38.8121 119.286 38.8982 119.122 38.9551C118.957 39.0121 118.773 39.0412 118.571 39.0412C118.266 39.0412 118 38.9746 117.774 38.8426C117.547 38.7107 117.37 38.519 117.245 38.269C117.125 38.0301 117.064 37.744 117.059 37.4121H121.119V36.9912C121.119 36.4732 121.049 36.0273 120.907 35.6523C120.766 35.2773 120.572 34.9704 120.327 34.7301V34.7315ZM117.061 36.494C117.075 36.2607 117.133 36.0412 117.238 35.8398C117.358 35.6135 117.525 35.4287 117.741 35.2898C117.956 35.1496 118.207 35.0801 118.494 35.0801C118.763 35.0801 118.999 35.1412 119.201 35.2635C119.403 35.3857 119.561 35.5537 119.673 35.7662C119.787 35.9787 119.844 36.2218 119.844 36.4954H117.06L117.061 36.494Z" fill="black"/>
<path d="M122.659 33.3011H125.055V39.9775H126.4V33.3011H128.797V32.147H122.659V33.3011Z" fill="black"/>
<path d="M131.643 34.0166C131.308 34.0166 131.011 34.1097 130.751 34.2944C130.492 34.4791 130.309 34.7402 130.204 35.0763H130.143V34.1055H128.863V39.9791H130.182V36.4985C130.182 36.2485 130.239 36.0263 130.356 35.8333C130.471 35.6388 130.629 35.4874 130.828 35.3777C131.027 35.268 131.254 35.2138 131.509 35.2138C131.624 35.2138 131.744 35.2222 131.866 35.2402C131.988 35.2583 132.078 35.2763 132.136 35.2944V34.0597C132.073 34.0472 131.993 34.036 131.899 34.0291C131.803 34.0208 131.719 34.018 131.646 34.018L131.643 34.0166Z" fill="black"/>
<path d="M136.413 34.4468C136.184 34.2954 135.931 34.1871 135.657 34.1232C135.382 34.0593 135.111 34.0273 134.84 34.0273C134.445 34.0273 134.081 34.0857 133.75 34.2037C133.42 34.3204 133.137 34.4982 132.902 34.7357C132.667 34.9732 132.497 35.2704 132.392 35.6273L133.627 35.8218C133.697 35.6176 133.833 35.4398 134.033 35.2885C134.233 35.1371 134.505 35.0607 134.847 35.0607C135.189 35.0607 135.428 35.1426 135.599 35.3051C135.771 35.4676 135.856 35.6982 135.856 35.994V36.0204C135.856 36.1523 135.808 36.251 135.71 36.3135C135.613 36.376 135.458 36.4218 135.245 36.4496C135.032 36.4773 134.754 36.5107 134.412 36.5496C134.132 36.5829 133.86 36.6315 133.598 36.6968C133.334 36.7621 133.098 36.8593 132.887 36.9871C132.677 37.1162 132.511 37.2885 132.389 37.5051C132.267 37.7218 132.205 37.9954 132.205 38.3273C132.205 38.7121 132.29 39.0371 132.46 39.301C132.63 39.5648 132.862 39.7648 133.157 39.8996C133.452 40.0343 133.783 40.1023 134.151 40.1023C134.459 40.1023 134.725 40.0579 134.95 39.9704C135.175 39.8829 135.363 39.7676 135.513 39.626C135.662 39.4843 135.778 39.3329 135.859 39.1732H135.904V39.9801H137.173V36.0565C137.173 35.6593 137.103 35.3287 136.963 35.0676C136.823 34.8065 136.64 34.5996 136.41 34.4482L136.413 34.4468ZM135.861 37.8676C135.861 38.0898 135.806 38.294 135.695 38.4815C135.584 38.669 135.426 38.819 135.219 38.9329C135.012 39.0468 134.767 39.1037 134.486 39.1037C134.205 39.1037 133.953 39.0371 133.765 38.9023C133.577 38.769 133.484 38.5718 133.484 38.3121C133.484 38.1287 133.532 37.9787 133.628 37.8648C133.724 37.7496 133.855 37.6607 134.019 37.5968C134.184 37.5329 134.371 37.4857 134.577 37.4551C134.667 37.4426 134.776 37.4273 134.903 37.4107C135.031 37.394 135.159 37.3732 135.289 37.3496C135.419 37.326 135.536 37.2982 135.64 37.2676C135.745 37.2371 135.819 37.2023 135.861 37.1648V37.869V37.8676Z" fill="black"/>
<path d="M142.208 34.2857C141.91 34.1135 141.561 34.0273 141.161 34.0273C140.727 34.0273 140.364 34.1232 140.072 34.3162C139.78 34.5093 139.568 34.7676 139.437 35.094H139.365V34.1037H138.103V39.9773H139.422V36.5273C139.424 36.2371 139.478 35.9898 139.584 35.7871C139.689 35.5843 139.836 35.4301 140.025 35.3218C140.215 35.2148 140.432 35.1607 140.676 35.1607C141.034 35.1607 141.316 35.2732 141.52 35.4996C141.726 35.7246 141.826 36.0385 141.825 36.4385V39.976H143.148V36.2398C143.151 35.7662 143.068 35.3635 142.902 35.0357C142.736 34.7065 142.504 34.4565 142.206 34.2843L142.208 34.2857Z" fill="black"/>
<path d="M147.126 36.64L146.151 36.4261C145.852 36.3567 145.637 36.2678 145.505 36.1581C145.374 36.0483 145.31 35.9053 145.313 35.7303C145.31 35.5233 145.407 35.3567 145.605 35.2275C145.803 35.0983 146.047 35.0344 146.337 35.0344C146.553 35.0344 146.735 35.0706 146.883 35.1414C147.03 35.2122 147.149 35.3053 147.238 35.4192C147.328 35.5331 147.391 35.6539 147.425 35.7844L148.627 35.6358C148.531 35.1442 148.291 34.7525 147.905 34.4636C147.52 34.1747 146.993 34.0303 146.321 34.0303C145.863 34.0303 145.458 34.1039 145.108 34.2497C144.758 34.3969 144.485 34.6025 144.289 34.8678C144.092 35.1331 143.994 35.4456 143.994 35.8053C143.994 36.2317 144.125 36.5831 144.39 36.8608C144.655 37.1386 145.064 37.3372 145.619 37.4581L146.608 37.6678C146.876 37.7261 147.074 37.8122 147.204 37.9261C147.334 38.04 147.399 38.1817 147.399 38.3525C147.399 38.5594 147.297 38.7317 147.094 38.8706C146.891 39.0094 146.622 39.0789 146.287 39.0789C145.97 39.0789 145.711 39.0094 145.51 38.8719C145.31 38.7344 145.178 38.5303 145.115 38.2594L143.83 38.3969C143.915 38.9317 144.173 39.3497 144.602 39.6497C145.03 39.9497 145.593 40.0983 146.291 40.0983C146.774 40.0983 147.201 40.0192 147.569 39.8608C147.937 39.7025 148.225 39.4831 148.435 39.2025C148.644 38.9219 148.75 38.5983 148.752 38.2317C148.75 37.8136 148.615 37.4747 148.347 37.215C148.08 36.9553 147.673 36.7636 147.127 36.6414L147.126 36.64Z" fill="black"/>
<path d="M150.74 34.104H149.421V39.9776H150.74V34.104Z" fill="black"/>
<path d="M150.085 31.7787C149.871 31.7787 149.687 31.851 149.535 31.9968C149.382 32.1426 149.305 32.3162 149.305 32.5204C149.305 32.7246 149.381 32.8954 149.535 33.0398C149.687 33.1857 149.871 33.2579 150.085 33.2579C150.299 33.2579 150.482 33.1857 150.633 33.0398C150.784 32.894 150.859 32.7204 150.859 32.5162C150.859 32.3121 150.784 32.1412 150.633 31.9954C150.482 31.8496 150.299 31.7773 150.085 31.7773V31.7787Z" fill="black"/>
<path d="M154.266 38.9038C154.196 38.9163 154.117 38.9232 154.031 38.9232C153.916 38.9232 153.809 38.9052 153.714 38.8677C153.618 38.8302 153.541 38.7621 153.483 38.6607C153.426 38.5594 153.397 38.4135 153.397 38.2232V35.1455H154.55V34.1052H153.397V32.6982H152.074V34.1052H151.246V35.1455H152.074V38.4496C152.071 38.8163 152.149 39.1219 152.31 39.3635C152.47 39.6052 152.685 39.7844 152.956 39.8982C153.227 40.0135 153.53 40.0663 153.865 40.0594C154.056 40.0538 154.218 40.0357 154.348 40.0052C154.478 39.9746 154.581 39.9482 154.654 39.9246L154.428 38.8691C154.389 38.8788 154.336 38.8913 154.266 38.9038Z" fill="black"/>
<path d="M156.558 34.104H155.239V39.9776H156.558V34.104Z" fill="black"/>
<path d="M155.903 31.7787C155.689 31.7787 155.505 31.851 155.353 31.9968C155.2 32.1426 155.124 32.3162 155.124 32.5204C155.124 32.7246 155.199 32.8954 155.353 33.0398C155.505 33.1857 155.689 33.2579 155.903 33.2579C156.117 33.2579 156.3 33.1857 156.451 33.0398C156.602 32.894 156.677 32.7204 156.677 32.5162C156.677 32.3121 156.602 32.1412 156.451 31.9954C156.3 31.8496 156.117 31.7773 155.903 31.7773V31.7787Z" fill="black"/>
<path d="M161.487 34.4065C161.074 34.1537 160.585 34.0273 160.021 34.0273C159.457 34.0273 158.971 34.1537 158.558 34.4065C158.145 34.6593 157.824 35.0135 157.596 35.469C157.368 35.926 157.254 36.4579 157.254 37.0676C157.254 37.6773 157.368 38.201 157.596 38.6551C157.824 39.1093 158.145 39.4621 158.558 39.7162C158.971 39.9704 159.458 40.0968 160.021 40.0968C160.584 40.0968 161.074 39.9704 161.487 39.7162C161.9 39.4621 162.22 39.1093 162.446 38.6551C162.673 38.201 162.787 37.6718 162.787 37.0676C162.787 36.4635 162.673 35.926 162.446 35.469C162.22 35.0121 161.9 34.6579 161.487 34.4065ZM161.292 38.0454C161.188 38.3398 161.03 38.5746 160.82 38.751C160.61 38.9273 160.345 39.0148 160.028 39.0148C159.711 39.0148 159.438 38.9273 159.225 38.751C159.012 38.5746 158.853 38.3398 158.749 38.0454C158.644 37.751 158.592 37.4232 158.592 37.0607C158.592 36.6982 158.644 36.369 158.749 36.0718C158.853 35.7746 159.012 35.5385 159.225 35.3621C159.438 35.1857 159.705 35.0982 160.028 35.0982C160.35 35.0982 160.61 35.1857 160.82 35.3621C161.03 35.5385 161.188 35.7746 161.292 36.0718C161.396 36.369 161.448 36.6982 161.448 37.0607C161.448 37.4232 161.396 37.751 161.292 38.0454Z" fill="black"/>
<path d="M168.286 35.0371C168.12 34.7079 167.888 34.4579 167.59 34.2857C167.293 34.1135 166.944 34.0273 166.543 34.0273C166.109 34.0273 165.747 34.1232 165.455 34.3162C165.162 34.5093 164.951 34.7676 164.819 35.094H164.748V34.1037H163.485V39.9773H164.804V36.5273C164.807 36.2371 164.86 35.9898 164.966 35.7871C165.072 35.5843 165.219 35.4301 165.408 35.3218C165.597 35.2148 165.814 35.1607 166.059 35.1607C166.417 35.1607 166.698 35.2732 166.903 35.4996C167.109 35.7246 167.209 36.0385 167.207 36.4385V39.976H168.531V36.2398C168.533 35.7662 168.451 35.3635 168.285 35.0357L168.286 35.0371Z" fill="black"/>
</g>
<defs>
<clipPath id="clip0_650_576">
<rect width="168" height="45" fill="white" transform="translate(0.915039 0.292969)"/>
</clipPath>
</defs>
</svg>
