<svg width="200" height="265" viewBox="0 0 200 265" fill="none" xmlns="http://www.w3.org/2000/svg">
<path d="M154.215 30.8827C154.215 36.6512 152.169 44.6708 143.986 44.6708C134.109 44.6708 134.109 33.6262 134.109 31.3048C134.109 28.9833 134.109 17.1649 144.268 17.1649C153.51 17.1649 154.215 27.3653 154.215 30.8827ZM134.18 0H127.549V42.5604L127.407 48.8917H133.827L133.968 43.5453C134.84 44.9819 136.02 46.2074 137.425 47.133C139.773 48.6552 142.526 49.4394 145.326 49.3841C147.74 49.4385 150.132 48.918 152.304 47.8658C154.475 46.8136 156.364 45.2601 157.813 43.3342C159.577 41.0127 161.199 37.2843 161.199 30.3902C161.199 22.652 158.801 19.1346 157.037 17.0945C153.792 13.4364 149.347 12.5922 145.75 12.5922C137.707 12.5922 135.097 17.0242 134.18 18.6422V0Z" fill="#007F00"/>
<path d="M172.698 32.2896C172.698 29.124 172.698 17.8683 183.28 17.8683C191.111 17.8683 193.016 24.481 193.016 30.8827C193.016 33.4152 192.663 38.4802 190.123 41.9273C187.866 45.0226 184.339 45.3743 182.645 45.3743C173.333 45.4446 172.698 36.6512 172.698 32.2896ZM172.84 62.6095V45.0226C174.744 48.1179 178.554 50.2986 183.704 50.2986C192.169 50.2986 199.859 44.5301 199.859 31.3048C199.859 18.0794 192.593 12.944 184.974 12.944C182.081 12.944 176.226 13.7882 172.84 19.3456L172.698 13.5068H165.996C166.138 16.8835 166.208 17.7276 166.208 19.2753V62.6095H172.84Z" fill="#007F00"/>
<path fill-rule="evenodd" clip-rule="evenodd" d="M113.58 87.0202C109.879 78.4463 105.317 70.2678 99.9647 62.6095C94.6443 70.2876 90.0844 78.4629 86.3492 87.0202C91.6354 92.6039 96.2086 98.8182 99.9647 105.522C103.685 98.7956 108.262 92.577 113.58 87.0202Z" fill="#007F00"/>
<path fill-rule="evenodd" clip-rule="evenodd" d="M86.4198 240.589C90.1213 249.163 94.683 257.342 100.035 265C102.434 261.342 108.642 252.337 113.651 240.589C108.387 234.987 103.815 228.776 100.035 222.088C96.2552 228.776 91.684 234.987 86.4198 240.589Z" fill="#007F00"/>
<path fill-rule="evenodd" clip-rule="evenodd" d="M86.4198 87.0202C79.9624 80.2472 72.876 74.0995 65.2557 68.6594C62.8841 77.6841 61.419 86.9217 60.8818 96.2357C67.7575 99.6763 74.1792 103.953 80 108.969C81.2029 101.412 83.3599 94.037 86.4198 87.0202Z" fill="#007F00"/>
<path fill-rule="evenodd" clip-rule="evenodd" d="M113.58 240.589C120.021 247.379 127.109 253.529 134.744 258.95C137.109 249.924 138.574 240.687 139.118 231.374C132.257 227.908 125.839 223.633 120 218.641C118.754 226.188 116.599 233.558 113.58 240.589Z" fill="#007F00"/>
<path fill-rule="evenodd" clip-rule="evenodd" d="M60.8818 96.2357C52.5137 92.0434 43.7457 88.697 34.709 86.2463C35.5911 95.5445 37.3869 104.734 40.0705 113.682C47.6983 114.557 55.1869 116.377 62.3633 119.099C60.9428 111.566 60.4453 103.888 60.8818 96.2357Z" fill="#007F00"/>
<path fill-rule="evenodd" clip-rule="evenodd" d="M139.048 231.374C147.416 235.566 156.184 238.913 165.22 241.363C164.338 232.065 162.543 222.876 159.859 213.928C152.229 213.027 144.74 211.184 137.566 208.44C139.055 215.989 139.553 223.698 139.048 231.374Z" fill="#007F00"/>
<path fill-rule="evenodd" clip-rule="evenodd" d="M49.3122 134.646C45.3853 128.06 42.2817 121.02 40.0705 113.682C30.7741 112.596 21.3926 112.431 12.0635 113.19C16.0967 121.595 20.9152 129.603 26.455 137.108C33.9402 135.333 41.6197 134.506 49.3122 134.646Z" fill="#007F00"/>
<path fill-rule="evenodd" clip-rule="evenodd" d="M150.617 192.964C154.573 199.535 157.678 206.579 159.859 213.928C169.155 215.014 178.537 215.179 187.866 214.42C183.817 205.985 178.975 197.953 173.404 190.431C165.947 192.238 158.29 193.089 150.617 192.964Z" fill="#007F00"/>
<path fill-rule="evenodd" clip-rule="evenodd" d="M26.455 137.108C17.3679 139.289 8.50955 142.327 0 146.183C6.67926 152.734 13.9797 158.624 21.7989 163.77C28.2136 159.547 35.1342 156.144 42.3986 153.639C36.4322 148.793 31.0785 143.242 26.455 137.108Z" fill="#007F00"/>
<path fill-rule="evenodd" clip-rule="evenodd" d="M178.201 163.77C171.786 167.992 164.866 171.395 157.601 173.9C163.564 178.728 168.896 184.282 173.474 190.431C182.569 188.275 191.429 185.236 199.929 181.357C193.296 174.783 186.016 168.891 178.201 163.77Z" fill="#007F00"/>
<path fill-rule="evenodd" clip-rule="evenodd" d="M42.3986 173.9C35.1342 171.395 28.2136 167.992 21.7989 163.77C13.9797 168.916 6.67926 174.805 0 181.357C8.49661 185.244 17.3581 188.284 26.455 190.431C31.097 184.313 36.4488 178.764 42.3986 173.9Z" fill="#007F00"/>
<path fill-rule="evenodd" clip-rule="evenodd" d="M157.601 153.639C164.86 156.158 171.779 159.561 178.201 163.77C186.02 158.624 193.321 152.734 200 146.183C191.503 142.295 182.642 139.255 173.545 137.108C168.922 143.242 163.568 148.793 157.601 153.639Z" fill="#007F00"/>
<path fill-rule="evenodd" clip-rule="evenodd" d="M26.455 190.502C20.8563 197.992 16.0344 206.029 12.0635 214.49C21.3937 215.212 30.7716 215.047 40.0705 213.998C42.2817 206.66 45.3853 199.62 49.3122 193.034C41.6202 193.081 33.949 192.232 26.455 190.502Z" fill="#007F00"/>
<path fill-rule="evenodd" clip-rule="evenodd" d="M173.474 137.108C179.061 129.596 183.904 121.562 187.937 113.119C178.606 112.398 169.228 112.563 159.929 113.612C157.718 120.949 154.615 127.99 150.688 134.575C158.358 134.493 166.01 135.343 173.474 137.108Z" fill="#007F00"/>
<path fill-rule="evenodd" clip-rule="evenodd" d="M62.3633 208.44C55.1789 211.151 47.6946 212.993 40.0705 213.928C37.3869 222.876 35.5911 232.065 34.709 241.363C43.7457 238.913 52.5137 235.566 60.8818 231.374C60.4474 223.698 60.9448 215.997 62.3633 208.44Z" fill="#007F00"/>
<path fill-rule="evenodd" clip-rule="evenodd" d="M137.566 119.099C144.743 116.377 152.231 114.557 159.859 113.682C162.543 104.734 164.338 95.5445 165.22 86.2463C156.184 88.697 147.416 92.0434 139.048 96.2357C139.553 103.889 139.055 111.574 137.566 119.099Z" fill="#007F00"/>
<path fill-rule="evenodd" clip-rule="evenodd" d="M60.8818 231.374C61.419 240.688 62.8841 249.925 65.2557 258.95C72.8937 253.532 79.9821 247.383 86.4198 240.589C83.3599 233.548 81.203 226.15 80 218.57C74.1803 223.607 67.7589 227.907 60.8818 231.374Z" fill="#007F00"/>
<path fill-rule="evenodd" clip-rule="evenodd" d="M139.048 96.2357C138.51 86.9217 137.045 77.6841 134.674 68.6594C127.036 74.0771 119.947 80.2266 113.51 87.0202C116.528 94.0518 118.684 101.421 119.929 108.969C125.78 103.992 132.197 99.7187 139.048 96.2357Z" fill="#007F00"/>
<path fill-rule="evenodd" clip-rule="evenodd" d="M92.9806 124.445C94.2832 117.784 96.6407 111.373 99.9647 105.451C96.2086 98.7479 91.6354 92.5335 86.3492 86.9498C83.2987 93.97 81.142 101.344 79.9295 108.898C85.0705 113.366 89.4747 118.613 92.9806 124.445Z" fill="#99CC00"/>
<path fill-rule="evenodd" clip-rule="evenodd" d="M106.949 203.164C105.634 209.822 103.278 216.231 99.9647 222.158C103.697 228.877 108.272 235.094 113.58 240.66C116.608 233.607 118.764 226.213 120 218.641C114.844 214.215 110.437 208.989 106.949 203.164Z" fill="#99CC00"/>
<path fill-rule="evenodd" clip-rule="evenodd" d="M62.3633 119.099C68.7118 121.512 74.6397 124.907 79.9295 129.158C78.8711 122.47 78.8711 115.657 79.9295 108.969C74.1024 103.961 67.6818 99.6851 60.8113 96.2357C60.4347 103.891 60.9556 111.564 62.3633 119.099Z" fill="#99CC00"/>
<path fill-rule="evenodd" clip-rule="evenodd" d="M137.566 208.44C131.218 206.027 125.29 202.632 120 198.381C121.071 205.07 121.047 211.889 119.929 218.57C125.756 223.578 132.177 227.854 139.048 231.303C139.55 223.651 139.052 215.965 137.566 208.44Z" fill="#99CC00"/>
<path fill-rule="evenodd" clip-rule="evenodd" d="M69.2769 138.093C65.9837 132.164 63.6505 125.754 62.3633 119.099C55.1869 116.377 47.6983 114.557 40.0705 113.682C42.2817 121.02 45.3853 128.06 49.3122 134.646C56.1091 134.722 62.8497 135.886 69.2769 138.093Z" fill="#99CC00"/>
<path fill-rule="evenodd" clip-rule="evenodd" d="M130.653 189.517C133.946 195.446 136.279 201.856 137.566 208.511C144.751 211.221 152.235 213.063 159.859 213.998C157.648 206.66 154.544 199.62 150.617 193.034C143.825 192.852 137.097 191.666 130.653 189.517Z" fill="#99CC00"/>
<path fill-rule="evenodd" clip-rule="evenodd" d="M42.3986 153.639C48.8259 151.425 55.5641 150.238 62.3633 150.122C57.2266 145.696 52.8429 140.47 49.3827 134.646C41.6918 134.541 34.0166 135.368 26.5256 137.108C31.1038 143.257 36.4363 148.811 42.3986 153.639Z" fill="#99CC00"/>
<path fill-rule="evenodd" clip-rule="evenodd" d="M157.601 173.9C151.174 176.114 144.436 177.301 137.637 177.417C142.773 181.843 147.157 187.069 150.617 192.894C158.313 193.015 165.993 192.164 173.474 190.361C168.857 184.265 163.528 178.739 157.601 173.9Z" fill="#99CC00"/>
<path fill-rule="evenodd" clip-rule="evenodd" d="M59.8942 163.77C53.5546 161.352 47.647 157.931 42.3986 153.639C35.1342 156.144 28.2136 159.547 21.7989 163.77C28.2136 167.992 35.1342 171.395 42.3986 173.9C47.6644 169.633 53.5678 166.215 59.8942 163.77Z" fill="#99CC00"/>
<path fill-rule="evenodd" clip-rule="evenodd" d="M140.035 163.77C146.389 166.203 152.317 169.622 157.601 173.9C164.86 171.381 171.779 167.978 178.201 163.77C171.786 159.547 164.866 156.144 157.601 153.639C152.345 157.957 146.41 161.38 140.035 163.77Z" fill="#99CC00"/>
<path fill-rule="evenodd" clip-rule="evenodd" d="M49.3122 192.964C52.7946 187.155 57.1754 181.932 62.2928 177.487C55.4935 177.372 48.7554 176.185 42.328 173.97C36.3657 178.798 31.0333 184.352 26.455 190.502C33.9461 192.242 41.6213 193.069 49.3122 192.964Z" fill="#99CC00"/>
<path fill-rule="evenodd" clip-rule="evenodd" d="M150.617 134.646C147.135 140.454 142.754 145.677 137.637 150.122C144.436 150.238 151.174 151.425 157.601 153.639C163.564 148.811 168.896 143.257 173.474 137.108C165.99 135.329 158.31 134.502 150.617 134.646Z" fill="#99CC00"/>
<path fill-rule="evenodd" clip-rule="evenodd" d="M69.2769 189.517C62.8497 191.723 56.1091 192.887 49.3122 192.964C45.3853 199.55 42.2817 206.59 40.0705 213.928C47.7008 213.027 55.1891 211.184 62.3633 208.44C63.6625 201.811 65.9954 195.426 69.2769 189.517Z" fill="#99CC00"/>
<path fill-rule="evenodd" clip-rule="evenodd" d="M130.653 138.093C137.08 135.886 143.82 134.722 150.617 134.646C154.573 128.075 157.678 121.031 159.859 113.682C152.231 114.557 144.743 116.377 137.566 119.099C136.311 125.762 133.976 132.178 130.653 138.093Z" fill="#99CC00"/>
<path fill-rule="evenodd" clip-rule="evenodd" d="M92.9806 203.164C89.4921 208.989 85.0852 214.215 79.9295 218.641C81.1422 226.218 83.2988 233.615 86.3492 240.66C91.6354 235.076 96.2086 228.862 99.9647 222.158C96.6821 216.218 94.327 209.813 92.9806 203.164Z" fill="#99CC00"/>
<path fill-rule="evenodd" clip-rule="evenodd" d="M79.9295 198.451C74.6496 202.717 68.7193 206.113 62.3633 208.511C60.9099 216.04 60.4122 223.721 60.8818 231.374C67.7425 227.908 74.1612 223.633 80 218.641C78.8825 211.959 78.8587 205.141 79.9295 198.451Z" fill="#99CC00"/>
<path fill-rule="evenodd" clip-rule="evenodd" d="M106.949 124.445C110.459 118.636 114.863 113.414 120 108.969C118.797 101.412 116.64 94.037 113.58 87.0202C108.316 92.6221 103.745 98.8336 99.9647 105.522C103.3 111.413 105.658 117.803 106.949 124.445Z" fill="#99CC00"/>
<path fill-rule="evenodd" clip-rule="evenodd" d="M120 129.158C125.27 124.878 131.203 121.48 137.566 119.099C139.02 111.57 139.517 103.889 139.048 96.2357C132.187 99.7019 125.768 103.977 119.929 108.969C121.047 115.651 121.071 122.469 120 129.158Z" fill="#99CC00"/>
<path fill-rule="evenodd" clip-rule="evenodd" d="M93.0511 144.846C89.7273 138.846 85.2717 133.543 79.9295 129.229C81.0618 135.98 83.4292 142.466 86.9136 148.363C81.7242 143.896 75.7424 140.436 69.2769 138.163C72.6437 144.134 77.093 149.429 82.3986 153.78C75.9839 151.329 69.1618 150.112 62.2928 150.192C67.5013 154.653 73.5095 158.09 80 160.323C73.1352 160.215 66.3124 161.409 59.8942 163.84C66.3249 166.225 73.139 167.417 80 167.357C73.5095 169.59 67.5013 173.027 62.2928 177.487C69.1618 177.568 75.9839 176.351 82.3986 173.9C77.0772 178.235 72.6252 183.533 69.2769 189.517C75.7368 187.231 81.7165 183.773 86.9136 179.316C83.399 185.2 81.0295 191.691 79.9295 198.451C85.2204 194.085 89.6673 188.793 93.0511 182.834C91.7802 189.575 91.7802 196.493 93.0511 203.235C96.5439 197.341 98.9119 190.854 100.035 184.1C101.147 190.857 103.516 197.346 107.019 203.235C108.29 196.493 108.29 189.575 107.019 182.834C110.384 188.806 114.834 194.102 120.141 198.451C119.015 191.688 116.622 185.196 113.086 179.316C118.301 183.786 124.306 187.245 130.794 189.517C127.445 183.533 122.993 178.235 117.672 173.9C124.087 176.351 130.909 177.568 137.778 177.487C132.555 173.029 126.552 169.571 120.071 167.287C126.935 167.394 133.758 166.201 140.176 163.77C133.747 161.378 126.932 160.186 120.071 160.252C126.561 158.02 132.569 154.583 137.778 150.122C130.909 150.042 124.087 151.259 117.672 153.71C123.014 149.377 127.489 144.078 130.864 138.093C124.377 140.364 118.371 143.824 113.157 148.293C116.692 142.413 119.086 135.922 120.212 129.158C114.921 133.524 110.474 138.817 107.09 144.776C108.361 138.034 108.361 131.116 107.09 124.375C103.586 130.263 101.217 136.753 100.106 143.509C98.9942 136.753 96.6255 130.263 93.1217 124.375C91.791 131.132 91.767 138.08 93.0511 144.846Z" fill="#F7F8F0"/>
<path fill-rule="evenodd" clip-rule="evenodd" d="M93.0511 144.846C91.7802 138.105 91.7802 131.186 93.0511 124.445C89.5627 118.621 85.1558 113.395 80 108.969C78.9064 115.654 78.9064 122.473 80 129.158C85.2671 133.556 89.6892 138.872 93.0511 144.846Z" fill="#FFE600"/>
<path fill-rule="evenodd" clip-rule="evenodd" d="M106.878 182.763C108.149 189.505 108.149 196.423 106.878 203.164C110.389 208.973 114.793 214.196 119.929 218.641C121.012 211.956 121.036 205.143 120 198.451C114.692 194.075 110.243 188.756 106.878 182.763Z" fill="#FFE600"/>
<path fill-rule="evenodd" clip-rule="evenodd" d="M79.9295 129.158C74.6496 124.892 68.7193 121.496 62.3633 119.099C63.6183 125.762 65.9534 132.178 69.2769 138.093C75.7497 140.35 81.7344 143.811 86.9136 148.293C83.4184 142.401 81.0503 135.913 79.9295 129.158Z" fill="#FFE600"/>
<path fill-rule="evenodd" clip-rule="evenodd" d="M120 198.451C125.27 202.732 131.203 206.129 137.566 208.511C136.311 201.847 133.976 195.432 130.653 189.517C124.178 187.217 118.178 183.761 112.945 179.316C116.522 185.177 118.918 191.676 120 198.451Z" fill="#FFE600"/>
<path fill-rule="evenodd" clip-rule="evenodd" d="M82.4691 153.71C77.1477 149.375 72.6957 144.076 69.3474 138.093C62.9202 135.886 56.1797 134.722 49.3827 134.646C52.8651 140.454 57.246 145.677 62.3633 150.122C69.2318 150.047 76.0528 151.265 82.4691 153.71Z" fill="#FFE600"/>
<path fill-rule="evenodd" clip-rule="evenodd" d="M117.531 173.9C122.852 178.235 127.304 183.533 130.653 189.517C137.08 191.723 143.82 192.887 150.617 192.964C147.135 187.155 142.754 181.932 137.637 177.487C130.768 177.568 123.946 176.351 117.531 173.9Z" fill="#FFE600"/>
<path fill-rule="evenodd" clip-rule="evenodd" d="M80 160.323C73.5095 158.09 67.5013 154.653 62.2928 150.192C55.4935 150.308 48.7554 151.495 42.328 153.71C47.5863 157.987 53.4915 161.407 59.8236 163.84C66.2622 161.394 73.111 160.2 80 160.323Z" fill="#FFE600"/>
<path fill-rule="evenodd" clip-rule="evenodd" d="M119.929 167.287C126.411 169.571 132.414 173.029 137.637 177.487C144.436 177.372 151.174 176.185 157.601 173.97C152.328 169.677 146.397 166.257 140.035 163.84C133.612 166.247 126.79 167.417 119.929 167.287Z" fill="#FFE600"/>
<path fill-rule="evenodd" clip-rule="evenodd" d="M59.8942 163.77C53.5546 166.187 47.647 169.608 42.3986 173.9C48.8259 176.114 55.5641 177.301 62.3633 177.417C67.5719 172.956 73.58 169.519 80.0705 167.287C73.1806 167.422 66.3294 166.228 59.8942 163.77Z" fill="#FFE600"/>
<path fill-rule="evenodd" clip-rule="evenodd" d="M140.035 163.77C146.389 161.336 152.317 157.917 157.601 153.639C151.174 151.425 144.436 150.238 137.637 150.122C132.428 154.583 126.42 158.02 119.929 160.252C126.791 160.18 133.608 161.373 140.035 163.77Z" fill="#FFE600"/>
<path fill-rule="evenodd" clip-rule="evenodd" d="M82.4691 173.9C76.0544 176.351 69.2323 177.568 62.3633 177.487C57.2266 181.913 52.8429 187.14 49.3827 192.964C56.1765 192.853 62.9117 191.69 69.3474 189.517C72.6506 183.502 77.1094 178.196 82.4691 173.9Z" fill="#FFE600"/>
<path fill-rule="evenodd" clip-rule="evenodd" d="M117.531 153.71C123.946 151.259 130.768 150.042 137.637 150.122C142.773 145.696 147.157 140.47 150.617 134.646C143.824 134.757 137.088 135.92 130.653 138.093C127.304 144.076 122.852 149.375 117.531 153.71Z" fill="#FFE600"/>
<path fill-rule="evenodd" clip-rule="evenodd" d="M92.9806 203.164C94.295 209.822 96.6519 216.231 99.9647 222.158C103.259 216.223 105.614 209.816 106.949 203.164C103.456 197.271 101.088 190.783 99.9647 184.03C98.8735 190.792 96.5034 197.285 92.9806 203.164Z" fill="#FFE600"/>
<path fill-rule="evenodd" clip-rule="evenodd" d="M93.0511 182.763C89.7084 188.751 85.2556 194.05 79.9295 198.381C78.8711 205.069 78.8711 211.882 79.9295 218.57C85.0662 214.125 89.4703 208.903 92.9806 203.094C91.7697 196.369 91.7936 189.48 93.0511 182.763Z" fill="#FFE600"/>
<path fill-rule="evenodd" clip-rule="evenodd" d="M69.2769 189.517C65.9837 195.446 63.6505 201.856 62.3633 208.511C68.7118 206.097 74.6397 202.703 79.9295 198.451C81.0618 191.7 83.4292 185.214 86.9136 179.316C81.7165 183.773 75.7368 187.231 69.2769 189.517Z" fill="#FFE600"/>
<path fill-rule="evenodd" clip-rule="evenodd" d="M106.949 124.445C105.646 117.784 103.289 111.373 99.9647 105.451C96.6598 111.382 94.3034 117.79 92.9806 124.445C96.4844 130.333 98.8531 136.823 99.9647 143.58C101.076 136.823 103.445 130.333 106.949 124.445Z" fill="#FFE600"/>
<path fill-rule="evenodd" clip-rule="evenodd" d="M106.878 144.846C110.224 138.861 114.677 133.562 120 129.229C121.071 122.539 121.047 115.721 119.929 109.039C114.793 113.484 110.389 118.707 106.878 124.516C108.22 131.226 108.22 138.135 106.878 144.846Z" fill="#FFE600"/>
<path fill-rule="evenodd" clip-rule="evenodd" d="M130.653 138.093C133.946 132.164 136.279 125.754 137.566 119.099C131.218 121.512 125.29 124.907 120 129.158C118.874 135.922 116.481 142.413 112.945 148.293C118.178 143.849 124.178 140.392 130.653 138.093Z" fill="#FFE600"/>
</svg>
