<svg width="256" height="79" viewBox="0 0 256 79" fill="none" xmlns="http://www.w3.org/2000/svg">
<g clip-path="url(#clip0_3288_9540)">
<g clip-path="url(#clip1_3288_9540)">
<path d="M93.6436 29.7402H105.393V32.745H97.1853V37.978H104.722V40.9849H97.1853V49.3304H93.6456V29.7402H93.6436Z" fill="white"/>
<path d="M116.375 35.5908H119.915V49.332H116.375V47.7218C115.652 48.8217 114.23 49.6532 112.486 49.6532C109.32 49.6532 107.524 47.4799 107.524 44.4466V35.5908H111.064V43.5338C111.064 45.1704 111.921 46.5122 113.693 46.5122C115.465 46.5122 116.375 45.144 116.375 43.5338V35.5908Z" fill="white"/>
<path d="M130.12 46.5943C130.898 46.5943 131.595 46.3524 132.186 45.8706V49.0096C131.489 49.4121 130.443 49.654 129.423 49.654C126.633 49.654 124.568 48.0175 124.568 44.8764V38.4094H122.315V35.5916H124.568V32.3978L128.108 31.2715V35.5916H131.782V38.4094H128.108V44.5003C128.108 45.8686 128.86 46.5943 130.12 46.5943Z" fill="white"/>
<path d="M143.718 35.5908H147.258V49.332H143.718V47.7218C142.995 48.8217 141.572 49.6532 139.829 49.6532C136.663 49.6532 134.867 47.4799 134.867 44.4466V35.5908H138.406V43.5338C138.406 45.1704 139.264 46.5122 141.036 46.5122C142.808 46.5122 143.718 45.144 143.718 43.5338V35.5908Z" fill="white"/>
<path d="M159.165 38.9196C158.871 38.8932 158.602 38.8667 158.334 38.8667C156.296 38.8667 154.713 39.9666 154.713 42.6237V49.3327H151.173V35.5915H154.713V37.712C155.465 36.3966 156.885 35.3496 158.763 35.3496C158.897 35.3496 159.031 35.376 159.165 35.376V38.9176V38.9196Z" fill="white"/>
<path d="M167.901 35.2706C172.245 35.2706 174.446 38.4645 174.446 42.5427C174.446 42.8111 174.446 43.0794 174.419 43.3742H164.174C164.55 45.4946 166.373 46.7023 168.894 46.7023C170.504 46.7023 172.247 46.1391 173.428 45.1734V48.286C172.06 49.2252 170.183 49.6542 168.466 49.6542C164.148 49.6542 160.848 46.6209 160.848 42.4878C160.848 38.3547 164.148 35.2686 167.903 35.2686L167.901 35.2706ZM164.28 41.0139H171.119C170.959 39.5643 169.86 38.1148 167.848 38.1148C166.131 38.1148 164.763 39.2411 164.28 41.0139Z" fill="white"/>
<path d="M202.528 49.3327H198.72L196.735 45.1203H188.393L186.408 49.3327H182.572L192.551 28.9639L202.53 49.3327H202.528ZM189.706 42.3289H195.42L192.551 36.2644L189.708 42.3289H189.706Z" fill="white"/>
<path d="M211.985 31.9158C211.583 31.7003 211.154 31.5946 210.67 31.5946C209.437 31.5946 208.606 32.3997 208.606 33.8492V35.5935H211.69V38.4113H208.606V49.3347H205.119V38.4113H202.865V35.5935H205.119V33.6337C205.119 30.574 206.996 28.6162 209.973 28.6162C210.778 28.6162 211.448 28.724 211.985 28.9659V31.9178V31.9158Z" fill="white"/>
<path d="M222.068 38.9196C221.773 38.8932 221.505 38.8667 221.237 38.8667C219.199 38.8667 217.616 39.9666 217.616 42.6237V49.3327H214.076V35.5915H217.616V37.712C218.368 36.3966 219.788 35.3496 221.666 35.3496C221.8 35.3496 221.934 35.376 222.068 35.376V38.9176V38.9196Z" fill="white"/>
<path d="M228.42 31.4053C228.42 32.5601 227.507 33.4444 226.355 33.4444H226.329C225.175 33.4444 224.262 32.558 224.262 31.4053C224.262 30.2526 225.175 29.3662 226.329 29.3662H226.355C227.509 29.3662 228.42 30.2526 228.42 31.4053ZM228.125 35.5913V49.3325H224.585V35.5913H228.125Z" fill="white"/>
<path d="M241.567 45.5211V48.902C240.71 49.3858 239.582 49.6542 238.375 49.6542C234.459 49.6542 231.106 46.5945 231.106 42.4614C231.106 38.3282 234.459 35.2686 238.375 35.2686C239.582 35.2686 240.708 35.5369 241.567 36.0208V39.4017C240.736 38.7572 239.85 38.3811 238.59 38.3811C236.392 38.3811 234.486 40.0726 234.486 42.4593C234.486 44.8461 236.39 46.566 238.59 46.566C239.85 46.566 240.736 46.1899 241.567 45.519V45.5211Z" fill="white"/>
<path d="M252.566 48.2859C252.056 48.9304 250.77 49.6541 249.053 49.6541C246.289 49.6541 243.902 47.8834 243.902 45.0656C243.902 42.4084 246.289 40.6112 249.159 40.6112C250.715 40.6112 252.001 41.2293 252.564 41.8189V40.7983C252.564 39.4036 251.384 38.3302 249.319 38.3302C247.87 38.3302 246.556 38.8141 245.456 39.4565V36.3439C246.529 35.7544 248.273 35.2705 250.071 35.2705C253.745 35.2705 255.998 37.2832 255.998 40.6377V49.3329H252.564V48.2859H252.566ZM249.858 43.0793C248.464 43.0793 247.149 43.8031 247.149 45.0656C247.149 46.3281 248.464 47.0254 249.858 47.0254C251.252 47.0254 252.621 46.3281 252.621 45.0656C252.621 43.8031 251.227 43.0793 249.858 43.0793Z" fill="white"/>
<path d="M96.9635 60.0593V67.7075H96.3945V60.0593H93.501V59.5449H99.8591V60.0593H96.9655H96.9635Z" fill="white"/>
<path d="M101.692 67.7059H101.133V59.21H101.692V63.1113C101.973 62.4506 102.676 61.9586 103.535 61.9586C104.876 61.9586 105.592 62.9751 105.592 64.1726V67.7059H105.033V64.2844C105.033 63.278 104.484 62.473 103.369 62.473C102.363 62.473 101.692 63.2882 101.692 64.2945V67.7039V67.7059Z" fill="white"/>
<path d="M110.066 61.958C111.73 61.958 112.759 63.3445 112.736 64.977H107.752C107.796 66.3188 108.847 67.3353 110.288 67.3353C111.103 67.3353 111.875 67.0324 112.411 66.4632V67.0771C111.865 67.559 111.092 67.8375 110.255 67.8375C108.502 67.8375 107.215 66.5303 107.215 64.8978C107.215 63.2652 108.5 61.958 110.064 61.958H110.066ZM107.776 64.5176H112.18C112.068 63.3771 111.298 62.45 110.068 62.45C108.906 62.45 107.957 63.3323 107.778 64.5176H107.776Z" fill="white"/>
<path d="M117.52 59.5449H121.933V60.0593H118.088V63.3019H121.598V63.8163H118.088V67.7075H117.52V59.547V59.5449Z" fill="white"/>
<path d="M126.984 62.0928H127.543V67.7059H126.984V66.6894C126.704 67.3481 126.001 67.8401 125.141 67.8401C123.8 67.8401 123.107 66.8236 123.107 65.6262V62.0928H123.666V65.5143C123.666 66.5308 124.19 67.3258 125.308 67.3258C126.314 67.3258 126.984 66.5207 126.984 65.5042V62.0948V62.0928Z" fill="white"/>
<path d="M130.185 67.7054H129.626V62.0923H130.185V63.1088C130.465 62.448 131.168 61.9561 132.028 61.9561C133.369 61.9561 134.084 62.9726 134.084 64.17V67.7034H133.525V64.2818C133.525 63.2755 132.977 62.4704 131.861 62.4704C130.855 62.4704 130.185 63.2856 130.185 64.292V67.7014V67.7054Z" fill="white"/>
<path d="M140.922 63.5465V59.208H141.481V67.704H140.922V66.2504C140.587 67.1571 139.593 67.8382 138.552 67.8382C136.921 67.8382 135.704 66.5086 135.704 64.8984C135.704 63.2883 136.921 61.9587 138.552 61.9587C139.591 61.9587 140.587 62.6397 140.922 63.5465ZM136.262 64.8984C136.262 66.2402 137.313 67.336 138.609 67.336C139.906 67.336 140.944 66.2402 140.944 64.8984C140.944 63.5566 139.894 62.4608 138.609 62.4608C137.325 62.4608 136.262 63.5566 136.262 64.8984Z" fill="white"/>
<path d="M149.204 59.7116C149.036 59.6323 148.857 59.5998 148.635 59.5998C148.01 59.5998 147.552 60.0471 147.552 60.8969V62.0923H149.082V62.5741H147.552V67.7054H146.994V62.5741H145.965V62.0923H146.994V60.8399C146.994 59.8011 147.642 59.0732 148.591 59.0732C148.802 59.0732 149.015 59.0956 149.204 59.1749V59.7116Z" fill="white"/>
<path d="M149.668 64.8997C149.668 63.2794 150.975 61.96 152.562 61.96C154.149 61.96 155.455 63.2794 155.455 64.8997C155.455 66.52 154.149 67.8395 152.562 67.8395C150.975 67.8395 149.668 66.52 149.668 64.8997ZM150.227 64.8997C150.227 66.2517 151.265 67.3373 152.562 67.3373C153.858 67.3373 154.896 66.2537 154.896 64.8997C154.896 63.5457 153.858 62.4621 152.562 62.4621C151.265 62.4621 150.227 63.5457 150.227 64.8997Z" fill="white"/>
<path d="M159.72 62.5843C158.781 62.4054 157.641 62.9319 157.641 64.6193V67.7055H157.083V62.0923H157.641V63.2654C157.932 62.4603 158.737 61.8687 159.72 62.0252V62.5843Z" fill="white"/>
<path d="M171.085 67.7053H170.481L169.297 65.0217H165.375L164.19 67.7053H163.587L167.342 59.2764L171.085 67.7053ZM165.599 64.5297H169.086L167.342 60.5714L165.599 64.5297Z" fill="white"/>
<path d="M174.667 59.7116C174.499 59.6323 174.32 59.5998 174.098 59.5998C173.472 59.5998 173.015 60.0471 173.015 60.8969V62.0923H174.545V62.5741H173.015V67.7054H172.456V62.5741H171.428V62.0923H172.456V60.8399C172.456 59.8011 173.105 59.0732 174.054 59.0732C174.265 59.0732 174.478 59.0956 174.667 59.1749V59.7116Z" fill="white"/>
<path d="M178.485 62.5843C177.546 62.4054 176.406 62.9319 176.406 64.6193V67.7055H175.848V62.0923H176.406V63.2654C176.697 62.4603 177.502 61.8687 178.485 62.0252V62.5843Z" fill="white"/>
<path d="M180.601 60.2833C180.601 60.5293 180.41 60.7082 180.176 60.7082H180.164C179.918 60.7082 179.739 60.5293 179.739 60.2833C179.739 60.0373 179.918 59.8584 180.164 59.8584H180.176C180.41 59.8584 180.601 60.0475 180.601 60.2833ZM180.444 62.0947V67.7079H179.886V62.0947H180.444Z" fill="white"/>
<path d="M186.642 66.644V67.2804C186.207 67.628 185.604 67.8395 184.978 67.8395C183.369 67.8395 182.062 66.52 182.062 64.8997C182.062 63.2794 183.369 61.96 184.978 61.96C185.604 61.96 186.207 62.1714 186.642 62.519V63.1554C186.207 62.6979 185.648 62.4743 184.988 62.4743C183.669 62.4743 182.609 63.5478 182.609 64.8997C182.609 66.2517 183.669 67.3251 184.988 67.3251C185.648 67.3251 186.205 67.1015 186.642 66.644Z" fill="white"/>
<path d="M191.608 67.0241C191.352 67.4043 190.759 67.8394 189.922 67.8394C188.782 67.8394 187.811 67.1359 187.811 66.0625C187.811 64.9891 188.782 64.2857 189.922 64.2857C190.759 64.2857 191.352 64.7228 191.608 65.0907V63.8831C191.608 63.1004 190.983 62.4864 190.088 62.4864C189.44 62.4864 188.894 62.6979 188.434 63.0008V62.4315C188.825 62.1855 189.44 61.9619 190.133 61.9619C191.318 61.9619 192.155 62.7324 192.155 63.8404V67.7093H191.606V67.0282L191.608 67.0241ZM189.967 64.7654C189.129 64.7654 188.335 65.2452 188.335 66.0625C188.335 66.8798 189.127 67.3596 189.967 67.3596C190.806 67.3596 191.621 66.8798 191.621 66.0625C191.621 65.2452 190.806 64.7654 189.967 64.7654Z" fill="white"/>
<path d="M193.571 59.5449H194.242L194.108 62.1167H193.695L193.571 59.5449Z" fill="white"/>
<path d="M197.129 67.3597C197.877 67.3597 198.448 66.9795 198.448 66.3086C198.448 65.8512 198.224 65.6052 197.656 65.3246L196.662 64.8225C196.048 64.5216 195.522 64.2186 195.522 63.4359C195.522 62.5638 196.27 61.96 197.243 61.96C197.869 61.96 198.393 62.1714 198.818 62.519V63.133C198.361 62.7203 197.847 62.4398 197.243 62.4398C196.585 62.4398 196.058 62.8077 196.058 63.4115C196.058 63.9259 196.426 64.115 196.975 64.3955L197.968 64.8875C198.639 65.2108 198.997 65.6031 198.997 66.2964C198.997 67.2234 198.159 67.8395 197.131 67.8395C196.406 67.8395 195.78 67.5711 195.41 67.258V66.6217C195.912 67.1015 196.493 67.3597 197.131 67.3597H197.129Z" fill="white"/>
<path d="M203.847 59.5449H208.26V60.0593H204.416V63.3019H207.925V63.8163H204.416V67.7075H203.847V59.547V59.5449Z" fill="white"/>
<path d="M213.31 62.0928H213.868V67.7059H213.31V66.6894C213.029 67.3481 212.326 67.8401 211.467 67.8401C210.126 67.8401 209.433 66.8236 209.433 65.6262V62.0928H209.991V65.5143C209.991 66.5308 210.516 67.3258 211.633 67.3258C212.639 67.3258 213.31 66.5207 213.31 65.5042V62.0948V62.0928Z" fill="white"/>
<path d="M217.914 67.3479C218.339 67.3479 218.685 67.2259 218.987 66.9901V67.5146C218.764 67.6813 218.351 67.8379 217.87 67.8379C216.842 67.8379 216.216 67.1568 216.216 66.0834V62.5724H215.188V62.0905H216.216V60.4031L216.774 60.1348V62.0905H218.585V62.5724H216.774V66.0386C216.774 66.8214 217.142 67.3459 217.914 67.3459V67.3479Z" fill="white"/>
<path d="M224.112 62.0928H224.671V67.7059H224.112V66.6894C223.832 67.3481 223.128 67.8401 222.269 67.8401C220.928 67.8401 220.235 66.8236 220.235 65.6262V62.0928H220.794V65.5143C220.794 66.5308 221.318 67.3258 222.436 67.3258C223.441 67.3258 224.112 66.5207 224.112 65.5042V62.0948V62.0928Z" fill="white"/>
<path d="M229.365 62.5843C228.426 62.4054 227.286 62.9319 227.286 64.6193V67.7055H226.727V62.0923H227.286V63.2654C227.576 62.4603 228.381 61.8687 229.365 62.0252V62.5843Z" fill="white"/>
<path d="M232.88 61.958C234.544 61.958 235.573 63.3445 235.55 64.977H230.566C230.61 66.3188 231.661 67.3353 233.102 67.3353C233.917 67.3353 234.689 67.0324 235.225 66.4632V67.0771C234.679 67.559 233.906 67.8375 233.069 67.8375C231.316 67.8375 230.029 66.5303 230.029 64.8978C230.029 63.2652 231.313 61.958 232.878 61.958H232.88ZM230.59 64.5176H234.993C234.882 63.3771 234.112 62.45 232.882 62.45C231.72 62.45 230.771 63.3323 230.592 64.5176H230.59Z" fill="white"/>
<path d="M34.6643 0L0.782715 19.5719V58.7156L34.6643 78.2875L68.5479 58.7156V19.5719L34.6643 0ZM32.7217 72.3287L20.6801 65.3717L32.7217 58.4147V72.3267V72.3287ZM32.7217 53.9258L16.7928 63.1273L4.97067 56.2983L32.7197 40.266V53.9258H32.7217ZM32.7217 38.0215L4.97473 21.9932L16.803 15.1602L32.7237 24.3576V38.0215H32.7217ZM32.7217 19.8687L20.6882 12.9178L32.7217 5.96691V19.8687ZM36.6089 5.96488L48.6424 12.9158L36.6089 19.8667V5.96691V5.96488ZM36.6089 24.3576L52.5296 15.1602L64.3579 21.9932L44.7592 33.3151L36.6109 38.0215V24.3576H36.6089ZM36.6089 72.3287V58.4167L48.6526 65.3737L36.6089 72.3307V72.3287ZM64.3599 56.2983L52.5377 63.1273L36.6089 53.9258V40.266L64.3599 56.2963V56.2983Z" fill="white"/>
</g>
</g>
<defs>
<clipPath id="clip0_3288_9540">
<rect width="256" height="78.2875" fill="white"/>
</clipPath>
<clipPath id="clip1_3288_9540">
<rect width="255.217" height="78.2875" fill="white" transform="translate(0.782715)"/>
</clipPath>
</defs>
</svg>
